<svg width="411" height="47" viewBox="0 0 411 47" fill="none" xmlns="http://www.w3.org/2000/svg">
<g filter="url(#filter0_d_1_3)">
<mask id="path-1-outside-1_1_3" maskUnits="userSpaceOnUse" x="3" y="-1" width="405" height="41" fill="black">
<rect fill="white" x="3" y="-1" width="405" height="41"/>
<path d="M38.2565 15.2727H28.2423C28.1713 14.4441 27.9819 13.6925 27.6741 13.0178C27.3782 12.343 26.9639 11.763 26.4312 11.2777C25.9104 10.7805 25.2771 10.4018 24.5313 10.1413C23.7856 9.86908 22.9392 9.73295 21.9923 9.73295C20.3351 9.73295 18.9324 10.1354 17.7842 10.9403C16.6478 11.7453 15.7837 12.8994 15.1919 14.4027C14.6118 15.906 14.3218 17.7112 14.3218 19.8182C14.3218 22.0436 14.6177 23.9079 15.2096 25.4112C15.8133 26.9027 16.6833 28.0272 17.8197 28.7848C18.9561 29.5305 20.3232 29.9034 21.9213 29.9034C22.8327 29.9034 23.6495 29.791 24.3715 29.5661C25.0936 29.3293 25.721 28.992 26.2536 28.554C26.7863 28.116 27.2184 27.5893 27.5498 26.9737C27.8931 26.3464 28.1239 25.642 28.2423 24.8608L38.2565 24.9318C38.1381 26.4706 37.7061 28.0391 36.9603 29.6371C36.2146 31.2232 35.1552 32.6911 33.782 34.0405C32.4208 35.3781 30.734 36.4553 28.7217 37.272C26.7094 38.0888 24.3715 38.4972 21.7082 38.4972C18.3701 38.4972 15.3753 37.781 12.7238 36.3487C10.0841 34.9164 7.99488 32.8094 6.45605 30.0277C4.92907 27.246 4.16557 23.8428 4.16557 19.8182C4.16557 15.7699 4.94682 12.3608 6.50932 9.59091C8.07182 6.80918 10.1788 4.70809 12.8303 3.28764C15.4819 1.85535 18.4411 1.1392 21.7082 1.1392C24.0046 1.1392 26.1175 1.45289 28.047 2.08025C29.9764 2.70762 31.6691 3.625 33.1251 4.83238C34.5811 6.02793 35.7529 7.50166 36.6407 9.25355C37.5285 11.0054 38.0671 13.0118 38.2565 15.2727ZM42.7354 38V1.63636H52.6075V15.8409H65.6757V1.63636H75.5479V38H65.6757V23.7955H52.6075V38H42.7354ZM89.6814 38H79.028L91.0308 1.63636H104.525L116.528 38H105.875L97.92 11.6506H97.6359L89.6814 38ZM87.6927 23.6534H107.721V31.0398H87.6927V23.6534ZM153.549 19.8182C153.549 23.8665 152.761 27.2815 151.187 30.0632C149.613 32.8331 147.488 34.9342 144.813 36.3665C142.138 37.7869 139.155 38.4972 135.864 38.4972C132.55 38.4972 129.555 37.781 126.88 36.3487C124.216 34.9046 122.097 32.7976 120.523 30.0277C118.96 27.246 118.179 23.8428 118.179 19.8182C118.179 15.7699 118.96 12.3608 120.523 9.59091C122.097 6.80918 124.216 4.70809 126.88 3.28764C129.555 1.85535 132.55 1.1392 135.864 1.1392C139.155 1.1392 142.138 1.85535 144.813 3.28764C147.488 4.70809 149.613 6.80918 151.187 9.59091C152.761 12.3608 153.549 15.7699 153.549 19.8182ZM143.392 19.8182C143.392 17.6402 143.102 15.8054 142.522 14.3139C141.954 12.8106 141.108 11.6742 139.983 10.9048C138.871 10.1236 137.497 9.73295 135.864 9.73295C134.23 9.73295 132.851 10.1236 131.727 10.9048C130.614 11.6742 129.768 12.8106 129.188 14.3139C128.62 15.8054 128.335 17.6402 128.335 19.8182C128.335 21.9962 128.62 23.8369 129.188 25.3402C129.768 26.8317 130.614 27.968 131.727 28.7493C132.851 29.5187 134.23 29.9034 135.864 29.9034C137.497 29.9034 138.871 29.5187 139.983 28.7493C141.108 27.968 141.954 26.8317 142.522 25.3402C143.102 23.8369 143.392 21.9962 143.392 19.8182ZM179.636 1.63636H189.508V24.9318C189.508 27.7017 188.845 30.0987 187.52 32.1229C186.206 34.1352 184.371 35.6918 182.015 36.7926C179.66 37.8816 176.925 38.4261 173.812 38.4261C170.675 38.4261 167.929 37.8816 165.574 36.7926C163.218 35.6918 161.383 34.1352 160.069 32.1229C158.767 30.0987 158.116 27.7017 158.116 24.9318V1.63636H167.988V24.0795C167.988 25.2041 168.237 26.2102 168.734 27.098C169.231 27.974 169.918 28.6605 170.794 29.1577C171.682 29.6548 172.688 29.9034 173.812 29.9034C174.949 29.9034 175.955 29.6548 176.831 29.1577C177.707 28.6605 178.393 27.974 178.89 27.098C179.388 26.2102 179.636 25.2041 179.636 24.0795V1.63636ZM194.2 38V1.63636H219.768V9.59091H204.072V15.8409H218.206V23.7955H204.072V38H194.2ZM233.272 1.63636V38H223.399V1.63636H233.272ZM258.476 1.63636V38H254.072V1.63636H258.476ZM286.055 16.8352L282.291 17.9006C282.054 17.2732 281.705 16.6636 281.243 16.0717C280.793 15.468 280.178 14.9709 279.396 14.5803C278.615 14.1896 277.615 13.9943 276.396 13.9943C274.727 13.9943 273.336 14.379 272.223 15.1484C271.122 15.906 270.572 16.8707 270.572 18.0426C270.572 19.0843 270.951 19.907 271.708 20.5107C272.466 21.1143 273.649 21.6174 275.259 22.0199L279.308 23.0142C281.746 23.6061 283.563 24.5116 284.759 25.7308C285.954 26.9382 286.552 28.4948 286.552 30.4006C286.552 31.9631 286.102 33.3598 285.203 34.5909C284.315 35.822 283.072 36.7926 281.474 37.5028C279.876 38.2131 278.017 38.5682 275.899 38.5682C273.117 38.5682 270.814 37.9645 268.992 36.7571C267.169 35.5497 266.015 33.786 265.529 31.4659L269.506 30.4716C269.885 31.9394 270.601 33.0402 271.655 33.7741C272.72 34.508 274.111 34.875 275.828 34.875C277.781 34.875 279.331 34.4607 280.479 33.6321C281.64 32.7917 282.22 31.7855 282.22 30.6136C282.22 29.6667 281.888 28.8736 281.225 28.2344C280.562 27.5833 279.544 27.098 278.171 26.7784L273.626 25.7131C271.128 25.1212 269.293 24.2038 268.122 22.9609C266.961 21.7062 266.381 20.1378 266.381 18.2557C266.381 16.7169 266.814 15.3556 267.678 14.1719C268.554 12.9882 269.743 12.0589 271.247 11.3842C272.762 10.7095 274.478 10.3722 276.396 10.3722C279.095 10.3722 281.213 10.964 282.752 12.1477C284.303 13.3314 285.404 14.8939 286.055 16.8352ZM292.86 38V10.7273H296.908V14.9886H297.263C297.831 13.5327 298.749 12.4022 300.015 11.5973C301.282 10.7805 302.803 10.3722 304.578 10.3722C306.378 10.3722 307.875 10.7805 309.071 11.5973C310.278 12.4022 311.219 13.5327 311.894 14.9886H312.178C312.876 13.58 313.924 12.4614 315.321 11.6328C316.717 10.7924 318.392 10.3722 320.345 10.3722C322.784 10.3722 324.778 11.1357 326.329 12.6626C327.88 14.1778 328.655 16.5393 328.655 19.7472V38H324.465V19.7472C324.465 17.7348 323.914 16.2966 322.813 15.4325C321.713 14.5684 320.416 14.1364 318.925 14.1364C317.007 14.1364 315.522 14.7164 314.468 15.8764C313.415 17.0246 312.888 18.4806 312.888 20.2443V38H308.627V19.321C308.627 17.7704 308.124 16.5215 307.117 15.5746C306.111 14.6158 304.815 14.1364 303.229 14.1364C302.14 14.1364 301.122 14.4264 300.175 15.0064C299.24 15.5864 298.482 16.3913 297.902 17.4212C297.334 18.4392 297.05 19.617 297.05 20.9545V38H292.86ZM344.342 38.6392C342.614 38.6392 341.046 38.3137 339.637 37.6626C338.228 36.9998 337.11 36.0469 336.281 34.804C335.453 33.5492 335.038 32.0341 335.038 30.2585C335.038 28.696 335.346 27.4295 335.962 26.4588C336.577 25.4763 337.4 24.7069 338.43 24.1506C339.459 23.5942 340.596 23.1799 341.839 22.9077C343.093 22.6236 344.354 22.3987 345.621 22.233C347.278 22.0199 348.621 21.8601 349.651 21.7536C350.693 21.6352 351.45 21.4399 351.924 21.1676C352.409 20.8954 352.652 20.4219 352.652 19.7472V19.6051C352.652 17.8532 352.172 16.492 351.214 15.5213C350.267 14.5507 348.829 14.0653 346.899 14.0653C344.899 14.0653 343.33 14.5033 342.194 15.3793C341.057 16.2552 340.258 17.1903 339.797 18.1847L335.82 16.7642C336.53 15.107 337.477 13.8168 338.66 12.8935C339.856 11.9583 341.158 11.3073 342.567 10.9403C343.987 10.5616 345.384 10.3722 346.757 10.3722C347.633 10.3722 348.639 10.4787 349.775 10.6918C350.924 10.893 352.03 11.3132 353.096 11.9524C354.173 12.5916 355.067 13.5563 355.777 14.8466C356.487 16.1368 356.842 17.8651 356.842 20.0312V38H352.652V34.3068H352.439C352.155 34.8987 351.681 35.532 351.018 36.2067C350.355 36.8814 349.474 37.4555 348.373 37.929C347.272 38.4025 345.928 38.6392 344.342 38.6392ZM344.981 34.875C346.639 34.875 348.035 34.5495 349.172 33.8984C350.32 33.2474 351.184 32.407 351.764 31.3771C352.356 30.3473 352.652 29.2642 352.652 28.1278V24.2926C352.474 24.5057 352.084 24.701 351.48 24.8786C350.888 25.0443 350.202 25.1922 349.42 25.3224C348.651 25.4408 347.899 25.5473 347.165 25.642C346.443 25.7249 345.857 25.7959 345.408 25.8551C344.319 25.9972 343.301 26.228 342.354 26.5476C341.418 26.8554 340.661 27.3229 340.081 27.9503C339.513 28.5658 339.229 29.4062 339.229 30.4716C339.229 31.9276 339.767 33.0284 340.844 33.7741C341.933 34.508 343.312 34.875 344.981 34.875ZM364.491 38V10.7273H368.681V38H364.491ZM366.621 6.18182C365.804 6.18182 365.1 5.90365 364.508 5.3473C363.928 4.79096 363.638 4.12216 363.638 3.34091C363.638 2.55966 363.928 1.89086 364.508 1.33452C365.1 0.778172 365.804 0.5 366.621 0.5C367.438 0.5 368.136 0.778172 368.716 1.33452C369.308 1.89086 369.604 2.55966 369.604 3.34091C369.604 4.12216 369.308 4.79096 368.716 5.3473C368.136 5.90365 367.438 6.18182 366.621 6.18182ZM380.546 1.63636V38H376.356V1.63636H380.546Z"/>
<path d="M398.823 38V30.7273H406.096V38H398.823Z"/>
</mask>
<path d="M38.2565 15.2727H28.2423C28.1713 14.4441 27.9819 13.6925 27.6741 13.0178C27.3782 12.343 26.9639 11.763 26.4312 11.2777C25.9104 10.7805 25.2771 10.4018 24.5313 10.1413C23.7856 9.86908 22.9392 9.73295 21.9923 9.73295C20.3351 9.73295 18.9324 10.1354 17.7842 10.9403C16.6478 11.7453 15.7837 12.8994 15.1919 14.4027C14.6118 15.906 14.3218 17.7112 14.3218 19.8182C14.3218 22.0436 14.6177 23.9079 15.2096 25.4112C15.8133 26.9027 16.6833 28.0272 17.8197 28.7848C18.9561 29.5305 20.3232 29.9034 21.9213 29.9034C22.8327 29.9034 23.6495 29.791 24.3715 29.5661C25.0936 29.3293 25.721 28.992 26.2536 28.554C26.7863 28.116 27.2184 27.5893 27.5498 26.9737C27.8931 26.3464 28.1239 25.642 28.2423 24.8608L38.2565 24.9318C38.1381 26.4706 37.7061 28.0391 36.9603 29.6371C36.2146 31.2232 35.1552 32.6911 33.782 34.0405C32.4208 35.3781 30.734 36.4553 28.7217 37.272C26.7094 38.0888 24.3715 38.4972 21.7082 38.4972C18.3701 38.4972 15.3753 37.781 12.7238 36.3487C10.0841 34.9164 7.99488 32.8094 6.45605 30.0277C4.92907 27.246 4.16557 23.8428 4.16557 19.8182C4.16557 15.7699 4.94682 12.3608 6.50932 9.59091C8.07182 6.80918 10.1788 4.70809 12.8303 3.28764C15.4819 1.85535 18.4411 1.1392 21.7082 1.1392C24.0046 1.1392 26.1175 1.45289 28.047 2.08025C29.9764 2.70762 31.6691 3.625 33.1251 4.83238C34.5811 6.02793 35.7529 7.50166 36.6407 9.25355C37.5285 11.0054 38.0671 13.0118 38.2565 15.2727ZM42.7354 38V1.63636H52.6075V15.8409H65.6757V1.63636H75.5479V38H65.6757V23.7955H52.6075V38H42.7354ZM89.6814 38H79.028L91.0308 1.63636H104.525L116.528 38H105.875L97.92 11.6506H97.6359L89.6814 38ZM87.6927 23.6534H107.721V31.0398H87.6927V23.6534ZM153.549 19.8182C153.549 23.8665 152.761 27.2815 151.187 30.0632C149.613 32.8331 147.488 34.9342 144.813 36.3665C142.138 37.7869 139.155 38.4972 135.864 38.4972C132.55 38.4972 129.555 37.781 126.88 36.3487C124.216 34.9046 122.097 32.7976 120.523 30.0277C118.96 27.246 118.179 23.8428 118.179 19.8182C118.179 15.7699 118.96 12.3608 120.523 9.59091C122.097 6.80918 124.216 4.70809 126.88 3.28764C129.555 1.85535 132.55 1.1392 135.864 1.1392C139.155 1.1392 142.138 1.85535 144.813 3.28764C147.488 4.70809 149.613 6.80918 151.187 9.59091C152.761 12.3608 153.549 15.7699 153.549 19.8182ZM143.392 19.8182C143.392 17.6402 143.102 15.8054 142.522 14.3139C141.954 12.8106 141.108 11.6742 139.983 10.9048C138.871 10.1236 137.497 9.73295 135.864 9.73295C134.23 9.73295 132.851 10.1236 131.727 10.9048C130.614 11.6742 129.768 12.8106 129.188 14.3139C128.62 15.8054 128.335 17.6402 128.335 19.8182C128.335 21.9962 128.62 23.8369 129.188 25.3402C129.768 26.8317 130.614 27.968 131.727 28.7493C132.851 29.5187 134.23 29.9034 135.864 29.9034C137.497 29.9034 138.871 29.5187 139.983 28.7493C141.108 27.968 141.954 26.8317 142.522 25.3402C143.102 23.8369 143.392 21.9962 143.392 19.8182ZM179.636 1.63636H189.508V24.9318C189.508 27.7017 188.845 30.0987 187.52 32.1229C186.206 34.1352 184.371 35.6918 182.015 36.7926C179.66 37.8816 176.925 38.4261 173.812 38.4261C170.675 38.4261 167.929 37.8816 165.574 36.7926C163.218 35.6918 161.383 34.1352 160.069 32.1229C158.767 30.0987 158.116 27.7017 158.116 24.9318V1.63636H167.988V24.0795C167.988 25.2041 168.237 26.2102 168.734 27.098C169.231 27.974 169.918 28.6605 170.794 29.1577C171.682 29.6548 172.688 29.9034 173.812 29.9034C174.949 29.9034 175.955 29.6548 176.831 29.1577C177.707 28.6605 178.393 27.974 178.89 27.098C179.388 26.2102 179.636 25.2041 179.636 24.0795V1.63636ZM194.2 38V1.63636H219.768V9.59091H204.072V15.8409H218.206V23.7955H204.072V38H194.2ZM233.272 1.63636V38H223.399V1.63636H233.272ZM258.476 1.63636V38H254.072V1.63636H258.476ZM286.055 16.8352L282.291 17.9006C282.054 17.2732 281.705 16.6636 281.243 16.0717C280.793 15.468 280.178 14.9709 279.396 14.5803C278.615 14.1896 277.615 13.9943 276.396 13.9943C274.727 13.9943 273.336 14.379 272.223 15.1484C271.122 15.906 270.572 16.8707 270.572 18.0426C270.572 19.0843 270.951 19.907 271.708 20.5107C272.466 21.1143 273.649 21.6174 275.259 22.0199L279.308 23.0142C281.746 23.6061 283.563 24.5116 284.759 25.7308C285.954 26.9382 286.552 28.4948 286.552 30.4006C286.552 31.9631 286.102 33.3598 285.203 34.5909C284.315 35.822 283.072 36.7926 281.474 37.5028C279.876 38.2131 278.017 38.5682 275.899 38.5682C273.117 38.5682 270.814 37.9645 268.992 36.7571C267.169 35.5497 266.015 33.786 265.529 31.4659L269.506 30.4716C269.885 31.9394 270.601 33.0402 271.655 33.7741C272.72 34.508 274.111 34.875 275.828 34.875C277.781 34.875 279.331 34.4607 280.479 33.6321C281.64 32.7917 282.22 31.7855 282.22 30.6136C282.22 29.6667 281.888 28.8736 281.225 28.2344C280.562 27.5833 279.544 27.098 278.171 26.7784L273.626 25.7131C271.128 25.1212 269.293 24.2038 268.122 22.9609C266.961 21.7062 266.381 20.1378 266.381 18.2557C266.381 16.7169 266.814 15.3556 267.678 14.1719C268.554 12.9882 269.743 12.0589 271.247 11.3842C272.762 10.7095 274.478 10.3722 276.396 10.3722C279.095 10.3722 281.213 10.964 282.752 12.1477C284.303 13.3314 285.404 14.8939 286.055 16.8352ZM292.86 38V10.7273H296.908V14.9886H297.263C297.831 13.5327 298.749 12.4022 300.015 11.5973C301.282 10.7805 302.803 10.3722 304.578 10.3722C306.378 10.3722 307.875 10.7805 309.071 11.5973C310.278 12.4022 311.219 13.5327 311.894 14.9886H312.178C312.876 13.58 313.924 12.4614 315.321 11.6328C316.717 10.7924 318.392 10.3722 320.345 10.3722C322.784 10.3722 324.778 11.1357 326.329 12.6626C327.88 14.1778 328.655 16.5393 328.655 19.7472V38H324.465V19.7472C324.465 17.7348 323.914 16.2966 322.813 15.4325C321.713 14.5684 320.416 14.1364 318.925 14.1364C317.007 14.1364 315.522 14.7164 314.468 15.8764C313.415 17.0246 312.888 18.4806 312.888 20.2443V38H308.627V19.321C308.627 17.7704 308.124 16.5215 307.117 15.5746C306.111 14.6158 304.815 14.1364 303.229 14.1364C302.14 14.1364 301.122 14.4264 300.175 15.0064C299.24 15.5864 298.482 16.3913 297.902 17.4212C297.334 18.4392 297.05 19.617 297.05 20.9545V38H292.86ZM344.342 38.6392C342.614 38.6392 341.046 38.3137 339.637 37.6626C338.228 36.9998 337.11 36.0469 336.281 34.804C335.453 33.5492 335.038 32.0341 335.038 30.2585C335.038 28.696 335.346 27.4295 335.962 26.4588C336.577 25.4763 337.4 24.7069 338.43 24.1506C339.459 23.5942 340.596 23.1799 341.839 22.9077C343.093 22.6236 344.354 22.3987 345.621 22.233C347.278 22.0199 348.621 21.8601 349.651 21.7536C350.693 21.6352 351.45 21.4399 351.924 21.1676C352.409 20.8954 352.652 20.4219 352.652 19.7472V19.6051C352.652 17.8532 352.172 16.492 351.214 15.5213C350.267 14.5507 348.829 14.0653 346.899 14.0653C344.899 14.0653 343.33 14.5033 342.194 15.3793C341.057 16.2552 340.258 17.1903 339.797 18.1847L335.82 16.7642C336.53 15.107 337.477 13.8168 338.66 12.8935C339.856 11.9583 341.158 11.3073 342.567 10.9403C343.987 10.5616 345.384 10.3722 346.757 10.3722C347.633 10.3722 348.639 10.4787 349.775 10.6918C350.924 10.893 352.03 11.3132 353.096 11.9524C354.173 12.5916 355.067 13.5563 355.777 14.8466C356.487 16.1368 356.842 17.8651 356.842 20.0312V38H352.652V34.3068H352.439C352.155 34.8987 351.681 35.532 351.018 36.2067C350.355 36.8814 349.474 37.4555 348.373 37.929C347.272 38.4025 345.928 38.6392 344.342 38.6392ZM344.981 34.875C346.639 34.875 348.035 34.5495 349.172 33.8984C350.32 33.2474 351.184 32.407 351.764 31.3771C352.356 30.3473 352.652 29.2642 352.652 28.1278V24.2926C352.474 24.5057 352.084 24.701 351.48 24.8786C350.888 25.0443 350.202 25.1922 349.42 25.3224C348.651 25.4408 347.899 25.5473 347.165 25.642C346.443 25.7249 345.857 25.7959 345.408 25.8551C344.319 25.9972 343.301 26.228 342.354 26.5476C341.418 26.8554 340.661 27.3229 340.081 27.9503C339.513 28.5658 339.229 29.4062 339.229 30.4716C339.229 31.9276 339.767 33.0284 340.844 33.7741C341.933 34.508 343.312 34.875 344.981 34.875ZM364.491 38V10.7273H368.681V38H364.491ZM366.621 6.18182C365.804 6.18182 365.1 5.90365 364.508 5.3473C363.928 4.79096 363.638 4.12216 363.638 3.34091C363.638 2.55966 363.928 1.89086 364.508 1.33452C365.1 0.778172 365.804 0.5 366.621 0.5C367.438 0.5 368.136 0.778172 368.716 1.33452C369.308 1.89086 369.604 2.55966 369.604 3.34091C369.604 4.12216 369.308 4.79096 368.716 5.3473C368.136 5.90365 367.438 6.18182 366.621 6.18182ZM380.546 1.63636V38H376.356V1.63636H380.546Z" fill="white" shape-rendering="crispEdges"/>
<path d="M398.823 38V30.7273H406.096V38H398.823Z" fill="#B00000" shape-rendering="crispEdges"/>
<path d="M38.2565 15.2727V16.2727H39.3438L39.253 15.1892L38.2565 15.2727ZM28.2423 15.2727L27.2459 15.3581L27.3243 16.2727H28.2423V15.2727ZM27.6741 13.0178L26.7583 13.4194L26.7612 13.4261L26.7643 13.4328L27.6741 13.0178ZM26.4312 11.2777L25.7407 12.0011L25.7491 12.0091L25.7577 12.0169L26.4312 11.2777ZM24.5313 10.1413L24.1884 11.0808L24.2017 11.0854L24.5313 10.1413ZM17.7842 10.9403L17.2101 10.1215L17.2062 10.1243L17.7842 10.9403ZM15.1919 14.4027L14.2613 14.0364L14.2589 14.0427L15.1919 14.4027ZM15.2096 25.4112L14.2791 25.7776L14.2827 25.7864L15.2096 25.4112ZM17.8197 28.7848L17.265 29.6169L17.271 29.6208L17.8197 28.7848ZM24.3715 29.5661L24.6689 30.5208L24.676 30.5186L24.6831 30.5163L24.3715 29.5661ZM26.2536 28.554L26.8887 29.3264L26.8887 29.3264L26.2536 28.554ZM27.5498 26.9737L26.6725 26.4937L26.6693 26.4996L27.5498 26.9737ZM28.2423 24.8608L28.2494 23.8608L27.3833 23.8547L27.2536 24.711L28.2423 24.8608ZM38.2565 24.9318L39.2535 25.0085L39.3358 23.9394L38.2636 23.9318L38.2565 24.9318ZM36.9603 29.6371L37.8653 30.0625L37.8665 30.06L36.9603 29.6371ZM33.782 34.0405L34.4829 34.7538L34.483 34.7537L33.782 34.0405ZM28.7217 37.272L28.3456 36.3454L28.7217 37.272ZM12.7238 36.3487L12.2469 37.2277L12.2485 37.2286L12.7238 36.3487ZM6.45605 30.0277L5.57944 30.5089L5.58102 30.5118L6.45605 30.0277ZM6.50932 9.59091L7.3803 10.0822L7.38119 10.0806L6.50932 9.59091ZM12.8303 3.28764L13.3026 4.16913L13.3056 4.16748L12.8303 3.28764ZM28.047 2.08025L28.3562 1.12926L28.3562 1.12926L28.047 2.08025ZM33.1251 4.83238L32.4867 5.60215L32.4905 5.60522L33.1251 4.83238ZM36.6407 9.25355L35.7487 9.70558L35.7487 9.70558L36.6407 9.25355ZM38.2565 14.2727H28.2423V16.2727H38.2565V14.2727ZM29.2386 15.1873C29.159 14.2584 28.9446 13.3934 28.5839 12.6028L26.7643 13.4328C27.0192 13.9915 27.1835 14.6298 27.2459 15.3581L29.2386 15.1873ZM28.5899 12.6161C28.239 11.8161 27.7432 11.1203 27.1047 10.5385L25.7577 12.0169C26.1845 12.4058 26.5173 12.87 26.7583 13.4194L28.5899 12.6161ZM27.1217 10.5543C26.488 9.94951 25.7282 9.50006 24.861 9.19724L24.2017 11.0854C24.826 11.3034 25.3327 11.6116 25.7407 12.0011L27.1217 10.5543ZM24.8743 9.20198C23.9997 8.8827 23.0342 8.73295 21.9923 8.73295V10.733C22.8442 10.733 23.5715 10.8555 24.1884 11.0807L24.8743 9.20198ZM21.9923 8.73295C20.168 8.73295 18.5554 9.17845 17.2102 10.1215L18.3582 11.7592C19.3094 11.0924 20.5022 10.733 21.9923 10.733V8.73295ZM17.2062 10.1243C15.8869 11.0588 14.9128 12.3817 14.2614 14.0364L16.1223 14.769C16.6546 13.417 17.4087 12.4317 18.3622 11.7564L17.2062 10.1243ZM14.2589 14.0427C13.6232 15.6902 13.3218 17.624 13.3218 19.8182H15.3218C15.3218 17.7984 15.6004 16.1218 16.1248 14.7627L14.2589 14.0427ZM13.3218 19.8182C13.3218 22.1248 13.6275 24.1226 14.2791 25.7776L16.1401 25.0449C15.608 23.6933 15.3218 21.9623 15.3218 19.8182H13.3218ZM14.2827 25.7864C14.948 27.4302 15.9334 28.7291 17.265 29.6169L18.3744 27.9528C17.4333 27.3253 16.6786 26.3752 16.1366 25.036L14.2827 25.7864ZM17.271 29.6208C18.5973 30.4912 20.1632 30.9034 21.9213 30.9034V28.9034C20.4833 28.9034 19.3148 28.5699 18.3683 27.9488L17.271 29.6208ZM21.9213 30.9034C22.9136 30.9034 23.8332 30.7811 24.6689 30.5208L24.0742 28.6113C23.4657 28.8008 22.7518 28.9034 21.9213 28.9034V30.9034ZM24.6831 30.5163C25.5111 30.2448 26.2509 29.8509 26.8887 29.3264L25.6185 27.7816C25.1911 28.133 24.6761 28.4138 24.06 28.6158L24.6831 30.5163ZM26.8887 29.3264C27.5232 28.8047 28.0381 28.1762 28.4303 27.4478L26.6693 26.4996C26.3986 27.0023 26.0494 27.4273 25.6185 27.7816L26.8887 29.3264ZM28.4271 27.4537C28.8321 26.7135 29.0969 25.8955 29.231 25.0106L27.2536 24.711C27.1509 25.3886 26.954 25.9793 26.6725 26.4937L28.4271 27.4537ZM28.2352 25.8608L38.2494 25.9318L38.2636 23.9318L28.2494 23.8608L28.2352 25.8608ZM37.2594 24.8551C37.1515 26.2582 36.7562 27.7098 36.0541 29.2142L37.8665 30.06C38.6559 28.3683 39.1247 26.6831 39.2535 25.0085L37.2594 24.8551ZM36.0553 29.2116C35.3648 30.6805 34.378 32.0527 33.0811 33.3273L34.483 34.7537C35.9323 33.3294 37.0644 31.766 37.8653 30.0625L36.0553 29.2116ZM33.0812 33.3272C31.8252 34.5614 30.2534 35.5711 28.3456 36.3454L29.0978 38.1986C31.2146 37.3394 33.0164 36.1948 34.4829 34.7538L33.0812 33.3272ZM28.3456 36.3454C26.4765 37.1041 24.2709 37.4972 21.7082 37.4972V39.4972C24.4721 39.4972 26.9423 39.0735 29.0978 38.1986L28.3456 36.3454ZM21.7082 37.4972C18.5178 37.4972 15.6894 36.8141 13.1991 35.4689L12.2485 37.2286C15.0613 38.7479 18.2224 39.4972 21.7082 39.4972V37.4972ZM13.2007 35.4698C10.7387 34.1339 8.78325 32.1687 7.33109 29.5436L5.58102 30.5118C7.20651 33.4502 9.42957 35.699 12.2469 37.2277L13.2007 35.4698ZM7.33266 29.5465C5.90552 26.9467 5.16557 23.7188 5.16557 19.8182H3.16557C3.16557 23.9668 3.95261 27.5453 5.57945 30.5089L7.33266 29.5465ZM5.16557 19.8182C5.16557 15.896 5.92245 12.6666 7.3803 10.0822L5.63834 9.09959C3.9712 12.055 3.16557 15.6438 3.16557 19.8182H5.16557ZM7.38119 10.0806C8.8564 7.45433 10.8292 5.49415 13.3026 4.16912L12.3581 2.40616C9.52847 3.92204 7.28725 6.16404 5.63745 9.10118L7.38119 10.0806ZM13.3056 4.16748C15.799 2.82059 18.5928 2.1392 21.7082 2.1392V0.139203C18.2895 0.139203 15.1647 0.89011 12.3551 2.4078L13.3056 4.16748ZM21.7082 2.1392C23.9132 2.1392 25.9204 2.44031 27.7377 3.03124L28.3562 1.12926C26.3147 0.46546 24.096 0.139203 21.7082 0.139203V2.1392ZM27.7377 3.03124C29.5558 3.6224 31.1349 4.48113 32.4868 5.60214L33.7634 4.06263C32.2033 2.76887 30.397 1.79284 28.3562 1.12926L27.7377 3.03124ZM32.4905 5.60522C33.8348 6.70908 34.9208 8.07193 35.7487 9.70558L37.5327 8.80152C36.585 6.93138 35.3273 5.34678 33.7597 4.05955L32.4905 5.60522ZM35.7487 9.70558C36.5699 11.3261 37.0797 13.204 37.26 15.3562L39.253 15.1892C39.0545 12.8196 38.4871 10.6848 37.5327 8.80152L35.7487 9.70558ZM42.7354 38H41.7354V39H42.7354V38ZM42.7354 1.63636V0.636363H41.7354V1.63636H42.7354ZM52.6075 1.63636H53.6075V0.636363H52.6075V1.63636ZM52.6075 15.8409H51.6075V16.8409H52.6075V15.8409ZM65.6757 15.8409V16.8409H66.6757V15.8409H65.6757ZM65.6757 1.63636V0.636363H64.6757V1.63636H65.6757ZM75.5479 1.63636H76.5479V0.636363H75.5479V1.63636ZM75.5479 38V39H76.5479V38H75.5479ZM65.6757 38H64.6757V39H65.6757V38ZM65.6757 23.7955H66.6757V22.7955H65.6757V23.7955ZM52.6075 23.7955V22.7955H51.6075V23.7955H52.6075ZM52.6075 38V39H53.6075V38H52.6075ZM43.7354 38V1.63636H41.7354V38H43.7354ZM42.7354 2.63636H52.6075V0.636363H42.7354V2.63636ZM51.6075 1.63636V15.8409H53.6075V1.63636H51.6075ZM52.6075 16.8409H65.6757V14.8409H52.6075V16.8409ZM66.6757 15.8409V1.63636H64.6757V15.8409H66.6757ZM65.6757 2.63636H75.5479V0.636363H65.6757V2.63636ZM74.5479 1.63636V38H76.5479V1.63636H74.5479ZM75.5479 37H65.6757V39H75.5479V37ZM66.6757 38V23.7955H64.6757V38H66.6757ZM65.6757 22.7955H52.6075V24.7955H65.6757V22.7955ZM51.6075 23.7955V38H53.6075V23.7955H51.6075ZM52.6075 37H42.7354V39H52.6075V37ZM89.6814 38V39H90.4241L90.6387 38.289L89.6814 38ZM79.028 38L78.0784 37.6866L77.6448 39H79.028V38ZM91.0308 1.63636V0.636363H90.3078L90.0812 1.32292L91.0308 1.63636ZM104.525 1.63636L105.475 1.32292L105.248 0.636363H104.525V1.63636ZM116.528 38V39H117.911L117.478 37.6866L116.528 38ZM105.875 38L104.917 38.289L105.132 39H105.875V38ZM97.92 11.6506L98.8773 11.3616L98.6627 10.6506H97.92V11.6506ZM97.6359 11.6506V10.6506H96.8932L96.6786 11.3616L97.6359 11.6506ZM87.6927 23.6534V22.6534H86.6927V23.6534H87.6927ZM107.721 23.6534H108.721V22.6534H107.721V23.6534ZM107.721 31.0398V32.0398H108.721V31.0398H107.721ZM87.6927 31.0398H86.6927V32.0398H87.6927V31.0398ZM89.6814 37H79.028V39H89.6814V37ZM79.9776 38.3134L91.9804 1.94981L90.0812 1.32292L78.0784 37.6866L79.9776 38.3134ZM91.0308 2.63636H104.525V0.636363H91.0308V2.63636ZM103.576 1.94981L115.578 38.3134L117.478 37.6866L105.475 1.32292L103.576 1.94981ZM116.528 37H105.875V39H116.528V37ZM106.832 37.711L98.8773 11.3616L96.9627 11.9396L104.917 38.289L106.832 37.711ZM97.92 10.6506H97.6359V12.6506H97.92V10.6506ZM96.6786 11.3616L88.724 37.711L90.6387 38.289L98.5932 11.9396L96.6786 11.3616ZM87.6927 24.6534H107.721V22.6534H87.6927V24.6534ZM106.721 23.6534V31.0398H108.721V23.6534H106.721ZM107.721 30.0398H87.6927V32.0398H107.721V30.0398ZM88.6927 31.0398V23.6534H86.6927V31.0398H88.6927ZM151.187 30.0632L152.056 30.5573L152.057 30.5558L151.187 30.0632ZM144.813 36.3665L145.282 37.2497L145.285 37.2481L144.813 36.3665ZM126.88 36.3487L126.403 37.2278L126.408 37.2303L126.88 36.3487ZM120.523 30.0277L119.651 30.5174L119.654 30.5218L120.523 30.0277ZM120.523 9.59091L119.653 9.09836L119.652 9.09959L120.523 9.59091ZM126.88 3.28764L127.35 4.16999L127.352 4.16924L126.88 3.28764ZM144.813 3.28764L144.341 4.16924L144.344 4.17086L144.813 3.28764ZM151.187 9.59091L150.317 10.0835L150.318 10.085L151.187 9.59091ZM142.522 14.3139L141.587 14.6675L141.59 14.6764L142.522 14.3139ZM139.983 10.9048L139.409 11.7233L139.419 11.7301L139.983 10.9048ZM131.727 10.9048L132.296 11.7273L132.297 11.7261L131.727 10.9048ZM129.188 14.3139L128.255 13.954L128.253 13.9579L129.188 14.3139ZM129.188 25.3402L128.252 25.6938L128.256 25.7026L129.188 25.3402ZM131.727 28.7493L131.152 29.5678L131.162 29.5746L131.727 28.7493ZM139.983 28.7493L140.552 29.5718L140.554 29.5705L139.983 28.7493ZM142.522 25.3402L141.589 24.9802L141.588 24.9842L142.522 25.3402ZM152.549 19.8182C152.549 23.739 151.786 26.9741 150.317 29.5707L152.057 30.5558C153.736 27.5888 154.549 23.9939 154.549 19.8182H152.549ZM150.318 29.5691C148.832 32.1835 146.841 34.1462 144.341 35.4849L145.285 37.2481C148.135 35.7222 150.394 33.4827 152.056 30.5573L150.318 29.5691ZM144.344 35.4833C141.825 36.8205 139.006 37.4972 135.864 37.4972V39.4972C139.304 39.4972 142.45 38.7533 145.282 37.2497L144.344 35.4833ZM135.864 37.4972C132.699 37.4972 129.868 36.8147 127.352 35.4671L126.408 37.2303C129.241 38.7474 132.4 39.4972 135.864 39.4972V37.4972ZM127.356 35.4696C124.866 34.1193 122.879 32.1497 121.392 29.5336L119.654 30.5218C121.315 33.4454 123.567 35.6899 126.403 37.2278L127.356 35.4696ZM121.395 29.538C119.936 26.94 119.179 23.7153 119.179 19.8182H117.179C117.179 23.9703 117.985 27.5519 119.651 30.5174L121.395 29.538ZM119.179 19.8182C119.179 15.896 119.936 12.6666 121.394 10.0822L119.652 9.09959C117.985 12.055 117.179 15.6438 117.179 19.8182H119.179ZM121.393 10.0835C122.88 7.45678 124.864 5.49574 127.35 4.16999L126.409 2.40529C123.568 3.92045 121.315 6.16159 119.653 9.09836L121.393 10.0835ZM127.352 4.16924C129.868 2.82169 132.699 2.1392 135.864 2.1392V0.139203C132.4 0.139203 129.241 0.889004 126.408 2.40604L127.352 4.16924ZM135.864 2.1392C139.004 2.1392 141.823 2.82114 144.341 4.16924L145.285 2.40604C142.452 0.889562 139.305 0.139203 135.864 0.139203V2.1392ZM144.344 4.17086C146.841 5.49693 148.831 7.45791 150.317 10.0835L152.057 9.09836C150.395 6.16046 148.135 3.91926 145.282 2.40442L144.344 4.17086ZM150.318 10.085C151.786 12.6688 152.549 15.8971 152.549 19.8182H154.549C154.549 15.6427 153.737 12.0528 152.056 9.09677L150.318 10.085ZM144.392 19.8182C144.392 17.558 144.092 15.592 143.454 13.9515L141.59 14.6764C142.112 16.0188 142.392 17.7223 142.392 19.8182H144.392ZM143.458 13.9604C142.83 12.3008 141.87 10.9841 140.548 10.0795L139.419 11.7301C140.345 12.3644 141.078 13.3204 141.587 14.6675L143.458 13.9604ZM140.558 10.0864C139.245 9.16482 137.661 8.73295 135.864 8.73295V10.733C137.334 10.733 138.496 11.0823 139.409 11.7232L140.558 10.0864ZM135.864 8.73295C134.067 8.73295 132.479 9.16494 131.156 10.0836L132.297 11.7261C133.224 11.0822 134.394 10.733 135.864 10.733V8.73295ZM131.158 10.0823C129.851 10.9863 128.893 12.2999 128.255 13.954L130.121 14.6739C130.643 13.3213 131.377 12.3622 132.296 11.7273L131.158 10.0823ZM128.253 13.9579C127.629 15.5963 127.335 17.5599 127.335 19.8182H129.335C129.335 17.7204 129.61 16.0145 130.122 14.6699L128.253 13.9579ZM127.335 19.8182C127.335 22.0768 127.629 24.0452 128.252 25.6937L130.123 24.9867C129.61 23.6286 129.335 21.9156 129.335 19.8182H127.335ZM128.256 25.7026C128.894 27.3448 129.851 28.6542 131.152 29.5677L132.301 27.9309C131.377 27.2819 130.641 26.3186 130.12 24.9778L128.256 25.7026ZM131.162 29.5746C132.484 30.4789 134.07 30.9034 135.864 30.9034V28.9034C134.391 28.9034 133.219 28.5585 132.292 27.924L131.162 29.5746ZM135.864 30.9034C137.658 30.9034 139.24 30.479 140.552 29.5718L139.414 27.9268C138.501 28.5584 137.337 28.9034 135.864 28.9034V30.9034ZM140.554 29.5705C141.87 28.6563 142.829 27.3439 143.457 25.6962L141.588 24.9842C141.079 26.3195 140.346 27.2798 139.413 27.928L140.554 29.5705ZM143.455 25.7002C144.092 24.0494 144.392 22.0787 144.392 19.8182H142.392C142.392 21.9137 142.112 23.6244 141.589 24.9802L143.455 25.7002ZM179.636 1.63636V0.636363H178.636V1.63636H179.636ZM189.508 1.63636H190.508V0.636363H189.508V1.63636ZM187.52 32.1229L186.683 31.575L186.682 31.5762L187.52 32.1229ZM182.015 36.7926L182.435 37.7003L182.439 37.6986L182.015 36.7926ZM165.574 36.7926L165.15 37.6986L165.154 37.7003L165.574 36.7926ZM160.069 32.1229L159.228 32.6639L159.232 32.6696L160.069 32.1229ZM158.116 1.63636V0.636363H157.116V1.63636H158.116ZM167.988 1.63636H168.988V0.636363H167.988V1.63636ZM168.734 27.098L167.862 27.5866L167.864 27.5916L168.734 27.098ZM170.794 29.1577L170.3 30.0274L170.305 30.0302L170.794 29.1577ZM176.831 29.1577L177.324 30.0274L177.324 30.0274L176.831 29.1577ZM178.89 27.098L179.76 27.5916L179.763 27.5866L178.89 27.098ZM179.636 2.63636H189.508V0.636363H179.636V2.63636ZM188.508 1.63636V24.9318H190.508V1.63636H188.508ZM188.508 24.9318C188.508 27.536 187.887 29.7363 186.683 31.575L188.356 32.6708C189.803 30.4612 190.508 27.8674 190.508 24.9318H188.508ZM186.682 31.5762C185.479 33.4197 183.793 34.858 181.592 35.8867L182.439 37.6986C184.949 36.5256 186.933 34.8506 188.357 32.6696L186.682 31.5762ZM181.596 35.8849C179.395 36.9022 176.809 37.4261 173.812 37.4261V39.4261C177.042 39.4261 179.924 38.861 182.435 37.7003L181.596 35.8849ZM173.812 37.4261C170.791 37.4261 168.193 36.9018 165.993 35.8849L165.154 37.7003C167.666 38.8615 170.56 39.4261 173.812 39.4261V37.4261ZM165.997 35.8867C163.796 34.858 162.11 33.4197 160.907 31.5762L159.232 32.6696C160.656 34.8506 162.64 36.5256 165.15 37.6986L165.997 35.8867ZM160.91 31.5819C159.727 29.7423 159.116 27.5395 159.116 24.9318H157.116C157.116 27.8639 157.807 30.4551 159.228 32.6639L160.91 31.5819ZM159.116 24.9318V1.63636H157.116V24.9318H159.116ZM158.116 2.63636H167.988V0.636363H158.116V2.63636ZM166.988 1.63636V24.0795H168.988V1.63636H166.988ZM166.988 24.0795C166.988 25.3568 167.272 26.5343 167.862 27.5866L169.607 26.6094C169.202 25.8862 168.988 25.0514 168.988 24.0795H166.988ZM167.864 27.5916C168.451 28.6246 169.267 29.4411 170.3 30.0274L171.287 28.288C170.568 27.8799 170.012 27.3233 169.604 26.6044L167.864 27.5916ZM170.305 30.0302C171.358 30.6195 172.535 30.9034 173.812 30.9034V28.9034C172.84 28.9034 172.006 28.6902 171.282 28.2852L170.305 30.0302ZM173.812 30.9034C175.099 30.9034 176.279 30.6204 177.324 30.0274L176.337 28.288C175.63 28.6892 174.798 28.9034 173.812 28.9034V30.9034ZM177.324 30.0274C178.357 29.4411 179.174 28.6246 179.76 27.5916L178.021 26.6044C177.613 27.3233 177.056 27.8799 176.337 28.288L177.324 30.0274ZM179.763 27.5866C180.352 26.5343 180.636 25.3568 180.636 24.0795H178.636C178.636 25.0514 178.423 25.8862 178.018 26.6094L179.763 27.5866ZM180.636 24.0795V1.63636H178.636V24.0795H180.636ZM194.2 38H193.2V39H194.2V38ZM194.2 1.63636V0.636363H193.2V1.63636H194.2ZM219.768 1.63636H220.768V0.636363H219.768V1.63636ZM219.768 9.59091V10.5909H220.768V9.59091H219.768ZM204.072 9.59091V8.59091H203.072V9.59091H204.072ZM204.072 15.8409H203.072V16.8409H204.072V15.8409ZM218.206 15.8409H219.206V14.8409H218.206V15.8409ZM218.206 23.7955V24.7955H219.206V23.7955H218.206ZM204.072 23.7955V22.7955H203.072V23.7955H204.072ZM204.072 38V39H205.072V38H204.072ZM195.2 38V1.63636H193.2V38H195.2ZM194.2 2.63636H219.768V0.636363H194.2V2.63636ZM218.768 1.63636V9.59091H220.768V1.63636H218.768ZM219.768 8.59091H204.072V10.5909H219.768V8.59091ZM203.072 9.59091V15.8409H205.072V9.59091H203.072ZM204.072 16.8409H218.206V14.8409H204.072V16.8409ZM217.206 15.8409V23.7955H219.206V15.8409H217.206ZM218.206 22.7955H204.072V24.7955H218.206V22.7955ZM203.072 23.7955V38H205.072V23.7955H203.072ZM204.072 37H194.2V39H204.072V37ZM233.272 1.63636H234.272V0.636363H233.272V1.63636ZM233.272 38V39H234.272V38H233.272ZM223.399 38H222.399V39H223.399V38ZM223.399 1.63636V0.636363H222.399V1.63636H223.399ZM232.272 1.63636V38H234.272V1.63636H232.272ZM233.272 37H223.399V39H233.272V37ZM224.399 38V1.63636H222.399V38H224.399ZM223.399 2.63636H233.272V0.636363H223.399V2.63636ZM258.476 1.63636H259.476V0.636363H258.476V1.63636ZM258.476 38V39H259.476V38H258.476ZM254.072 38H253.072V39H254.072V38ZM254.072 1.63636V0.636363H253.072V1.63636H254.072ZM257.476 1.63636V38H259.476V1.63636H257.476ZM258.476 37H254.072V39H258.476V37ZM255.072 38V1.63636H253.072V38H255.072ZM254.072 2.63636H258.476V0.636363H254.072V2.63636ZM286.055 16.8352L286.327 17.7974L287.336 17.5118L287.003 16.5173L286.055 16.8352ZM282.291 17.9006L281.355 18.2536L281.679 19.1129L282.563 18.8628L282.291 17.9006ZM281.243 16.0717L280.441 16.6692L280.448 16.6781L280.454 16.6868L281.243 16.0717ZM279.396 14.5803L279.844 13.6858L279.844 13.6858L279.396 14.5803ZM272.223 15.1484L272.79 15.9722L272.792 15.9709L272.223 15.1484ZM271.708 20.5107L271.085 21.2927L271.085 21.2927L271.708 20.5107ZM275.259 22.0199L275.017 22.99L275.021 22.991L275.259 22.0199ZM279.308 23.0142L279.069 23.9853L279.072 23.986L279.308 23.0142ZM284.759 25.7308L284.045 26.431L284.048 26.4344L284.759 25.7308ZM285.203 34.5909L284.395 34.0009L284.391 34.006L285.203 34.5909ZM268.992 36.7571L269.544 35.9234L269.544 35.9234L268.992 36.7571ZM265.529 31.4659L265.287 30.4958L264.353 30.7291L264.55 31.6707L265.529 31.4659ZM269.506 30.4716L270.475 30.2217L270.227 29.2607L269.264 29.5014L269.506 30.4716ZM271.655 33.7741L271.083 34.5947L271.088 34.5977L271.655 33.7741ZM280.479 33.6321L281.065 34.443L281.066 34.4419L280.479 33.6321ZM281.225 28.2344L280.524 28.9479L280.531 28.9542L281.225 28.2344ZM278.171 26.7784L277.943 27.752L277.945 27.7524L278.171 26.7784ZM273.626 25.7131L273.395 26.6861L273.398 26.6867L273.626 25.7131ZM268.122 22.9609L267.387 23.6398L267.394 23.647L268.122 22.9609ZM267.678 14.1719L266.874 13.577L266.87 13.5823L267.678 14.1719ZM271.247 11.3842L270.84 10.4707L270.837 10.4719L271.247 11.3842ZM282.752 12.1477L282.143 12.9404L282.145 12.9426L282.752 12.1477ZM285.782 15.873L282.018 16.9384L282.563 18.8628L286.327 17.7974L285.782 15.873ZM283.226 17.5475C282.95 16.8154 282.548 16.1186 282.031 15.4567L280.454 16.6868C280.861 17.2086 281.158 17.731 281.355 18.2536L283.226 17.5475ZM282.045 15.4743C281.488 14.7266 280.742 14.1352 279.844 13.6858L278.949 15.4747C279.613 15.8066 280.099 16.2095 280.441 16.6692L282.045 15.4743ZM279.844 13.6858C278.88 13.2039 277.712 12.9943 276.396 12.9943V14.9943C277.517 14.9943 278.351 15.1754 278.949 15.4747L279.844 13.6858ZM276.396 12.9943C274.571 12.9943 272.97 13.4164 271.654 14.3259L272.792 15.9709C273.702 15.3417 274.882 14.9943 276.396 14.9943V12.9943ZM271.656 14.3247C270.328 15.2384 269.572 16.4914 269.572 18.0426H271.572C271.572 17.2501 271.916 16.5736 272.79 15.9722L271.656 14.3247ZM269.572 18.0426C269.572 19.3624 270.069 20.4834 271.085 21.2927L272.331 19.7286C271.832 19.3305 271.572 18.8062 271.572 18.0426H269.572ZM271.085 21.2927C272.007 22.0277 273.353 22.5742 275.017 22.99L275.502 21.0497C273.946 20.6607 272.924 20.201 272.331 19.7286L271.085 21.2927ZM275.021 22.991L279.069 23.9853L279.546 22.0431L275.498 21.0487L275.021 22.991ZM279.072 23.986C281.409 24.5532 283.028 25.3938 284.045 26.431L285.473 25.0307C284.099 23.6294 282.083 22.6589 279.543 22.0424L279.072 23.986ZM284.048 26.4344C285.035 27.4311 285.552 28.7233 285.552 30.4006H287.552C287.552 28.2662 286.873 26.4453 285.469 25.0272L284.048 26.4344ZM285.552 30.4006C285.552 31.7566 285.166 32.9456 284.395 34.0009L286.01 35.1809C287.038 33.7741 287.552 32.1696 287.552 30.4006H285.552ZM284.391 34.006C283.622 35.0729 282.529 35.9396 281.068 36.589L281.88 38.4167C283.615 37.6456 285.007 36.5711 286.014 35.1758L284.391 34.006ZM281.068 36.589C279.622 37.2317 277.906 37.5682 275.899 37.5682V39.5682C278.128 39.5682 280.13 39.1944 281.88 38.4167L281.068 36.589ZM275.899 37.5682C273.26 37.5682 271.164 36.9963 269.544 35.9234L268.439 37.5908C270.465 38.9327 272.974 39.5682 275.899 39.5682V37.5682ZM269.544 35.9234C267.96 34.8743 266.944 33.3475 266.508 31.2612L264.55 31.6707C265.085 34.2245 266.378 36.2252 268.439 37.5908L269.544 35.9234ZM265.772 32.4361L269.749 31.4417L269.264 29.5014L265.287 30.4958L265.772 32.4361ZM268.538 30.7215C268.965 32.3768 269.799 33.7002 271.083 34.5947L272.227 32.9536C271.404 32.3803 270.805 31.502 270.475 30.2217L268.538 30.7215ZM271.088 34.5977C272.366 35.4787 273.974 35.875 275.828 35.875V33.875C274.249 33.875 273.074 33.5374 272.222 32.9506L271.088 34.5977ZM275.828 35.875C277.913 35.875 279.692 35.4334 281.065 34.443L279.894 32.8212C278.97 33.488 277.648 33.875 275.828 33.875V35.875ZM281.066 34.4419C282.421 33.4604 283.22 32.1786 283.22 30.6136H281.22C281.22 31.3924 280.858 32.1229 279.893 32.8223L281.066 34.4419ZM283.22 30.6136C283.22 29.4038 282.784 28.3481 281.919 27.5145L280.531 28.9542C280.992 29.399 281.22 29.9295 281.22 30.6136H283.22ZM281.926 27.5209C281.081 26.691 279.864 26.1457 278.398 25.8044L277.945 27.7524C279.224 28.0503 280.044 28.4757 280.525 28.9478L281.926 27.5209ZM278.399 25.8048L273.854 24.7395L273.398 26.6867L277.943 27.752L278.399 25.8048ZM273.856 24.74C271.459 24.172 269.835 23.3209 268.849 22.2749L267.394 23.647C268.751 25.0868 270.797 26.0704 273.395 26.6861L273.856 24.74ZM268.856 22.2821C267.885 21.2315 267.381 19.9138 267.381 18.2557H265.381C265.381 20.3617 266.038 22.1809 267.387 23.6398L268.856 22.2821ZM267.381 18.2557C267.381 16.9175 267.753 15.7651 268.485 14.7615L266.87 13.5823C265.874 14.9461 265.381 16.5162 265.381 18.2557H267.381ZM268.481 14.7667C269.244 13.7367 270.29 12.9095 271.656 12.2966L270.837 10.4719C269.196 11.2083 267.864 12.2396 266.874 13.577L268.481 14.7667ZM271.653 12.2977C273.022 11.6883 274.596 11.3722 276.396 11.3722V9.37216C274.36 9.37216 272.501 9.73075 270.84 10.4707L271.653 12.2977ZM276.396 11.3722C278.958 11.3722 280.835 11.9348 282.143 12.9403L283.362 11.3551C281.591 9.99321 279.231 9.37216 276.396 9.37216V11.3722ZM282.145 12.9426C283.529 13.9988 284.516 15.3915 285.107 17.1532L287.003 16.5173C286.292 14.3964 285.077 12.6641 283.359 11.3529L282.145 12.9426ZM292.86 38H291.86V39H292.86V38ZM292.86 10.7273V9.72727H291.86V10.7273H292.86ZM296.908 10.7273H297.908V9.72727H296.908V10.7273ZM296.908 14.9886H295.908V15.9886H296.908V14.9886ZM297.263 14.9886V15.9886H297.946L298.195 15.3522L297.263 14.9886ZM300.015 11.5973L300.552 12.4413L300.557 12.4377L300.015 11.5973ZM309.071 11.5973L308.506 12.4231L308.516 12.4294L309.071 11.5973ZM311.894 14.9886L310.986 15.4091L311.255 15.9886H311.894V14.9886ZM312.178 14.9886V15.9886H312.798L313.074 15.4328L312.178 14.9886ZM315.321 11.6328L315.831 12.4929L315.836 12.4897L315.321 11.6328ZM326.329 12.6626L325.627 13.3752L325.63 13.3779L326.329 12.6626ZM328.655 38V39H329.655V38H328.655ZM324.465 38H323.465V39H324.465V38ZM322.813 15.4325L322.196 16.2191L322.196 16.2191L322.813 15.4325ZM314.468 15.8764L315.205 16.5525L315.209 16.5487L314.468 15.8764ZM312.888 38V39H313.888V38H312.888ZM308.627 38H307.627V39H308.627V38ZM307.117 15.5746L306.428 16.2985L306.432 16.3028L307.117 15.5746ZM300.175 15.0064L299.653 14.1536L299.648 14.1566L300.175 15.0064ZM297.902 17.4212L297.031 16.9304L297.029 16.9338L297.902 17.4212ZM297.05 38V39H298.05V38H297.05ZM293.86 38V10.7273H291.86V38H293.86ZM292.86 11.7273H296.908V9.72727H292.86V11.7273ZM295.908 10.7273V14.9886H297.908V10.7273H295.908ZM296.908 15.9886H297.263V13.9886H296.908V15.9886ZM298.195 15.3522C298.689 14.0855 299.472 13.1272 300.552 12.4413L299.479 10.7533C298.025 11.6772 296.974 12.9798 296.331 14.6251L298.195 15.3522ZM300.557 12.4377C301.635 11.7425 302.96 11.3722 304.578 11.3722V9.37216C302.645 9.37216 300.928 9.81855 299.473 10.7569L300.557 12.4377ZM304.578 11.3722C306.225 11.3722 307.514 11.7447 308.506 12.423L309.635 10.7716C308.237 9.81641 306.53 9.37216 304.578 9.37216V11.3722ZM308.516 12.4294C309.554 13.1216 310.381 14.1019 310.986 15.4091L312.801 14.5682C312.057 12.9634 311.002 11.6829 309.625 10.7652L308.516 12.4294ZM311.894 15.9886H312.178V13.9886H311.894V15.9886ZM313.074 15.4328C313.683 14.2031 314.594 13.2264 315.831 12.4929L314.81 10.7728C313.253 11.6964 312.069 12.957 311.282 14.5444L313.074 15.4328ZM315.836 12.4897C317.049 11.7599 318.538 11.3722 320.345 11.3722V9.37216C318.247 9.37216 316.386 9.82482 314.805 10.776L315.836 12.4897ZM320.345 11.3722C322.556 11.3722 324.287 12.0553 325.627 13.3752L327.031 11.9501C325.27 10.2161 323.012 9.37216 320.345 9.37216V11.3722ZM325.63 13.3779C326.912 14.6307 327.655 16.6798 327.655 19.7472H329.655C329.655 16.3988 328.847 13.7248 327.028 11.9474L325.63 13.3779ZM327.655 19.7472V38H329.655V19.7472H327.655ZM328.655 37H324.465V39H328.655V37ZM325.465 38V19.7472H323.465V38H325.465ZM325.465 19.7472C325.465 17.5684 324.866 15.7721 323.431 14.6459L322.196 16.2191C322.963 16.8212 323.465 17.9013 323.465 19.7472H325.465ZM323.431 14.6459C322.142 13.6341 320.625 13.1364 318.925 13.1364V15.1364C320.208 15.1364 321.283 15.5027 322.196 16.2191L323.431 14.6459ZM318.925 13.1364C316.794 13.1364 315.012 13.7898 313.728 15.2041L315.209 16.5487C316.031 15.643 317.221 15.1364 318.925 15.1364V13.1364ZM313.731 15.2004C312.486 16.5576 311.888 18.2657 311.888 20.2443H313.888C313.888 18.6954 314.343 17.4916 315.205 16.5525L313.731 15.2004ZM311.888 20.2443V38H313.888V20.2443H311.888ZM312.888 37H308.627V39H312.888V37ZM309.627 38V19.321H307.627V38H309.627ZM309.627 19.321C309.627 17.5318 309.035 16.0064 307.803 14.8464L306.432 16.3028C307.212 17.0367 307.627 18.0089 307.627 19.321H309.627ZM307.807 14.8506C306.589 13.6893 305.033 13.1364 303.229 13.1364V15.1364C304.597 15.1364 305.634 15.5422 306.428 16.2985L307.807 14.8506ZM303.229 13.1364C301.952 13.1364 300.754 13.4793 299.653 14.1536L300.697 15.8591C301.49 15.3734 302.328 15.1364 303.229 15.1364V13.1364ZM299.648 14.1566C298.559 14.8319 297.687 15.765 297.031 16.9304L298.774 17.9119C299.277 17.0176 299.921 16.3409 300.702 15.8562L299.648 14.1566ZM297.029 16.9338C296.366 18.1215 296.05 19.4718 296.05 20.9545H298.05C298.05 19.7621 298.302 18.7568 298.775 17.9085L297.029 16.9338ZM296.05 20.9545V38H298.05V20.9545H296.05ZM297.05 37H292.86V39H297.05V37ZM339.637 37.6626L339.211 38.5675L339.217 38.5704L339.637 37.6626ZM336.281 34.804L335.447 35.355L335.449 35.3587L336.281 34.804ZM335.962 26.4588L336.806 26.9944L336.809 26.9897L335.962 26.4588ZM341.839 22.9077L342.053 23.8845L342.06 23.883L341.839 22.9077ZM345.621 22.233L345.493 21.2411L345.491 21.2414L345.621 22.233ZM349.651 21.7536L349.754 22.7483L349.764 22.7472L349.651 21.7536ZM351.924 21.1676L351.435 20.2954L351.425 20.3007L351.924 21.1676ZM351.214 15.5213L350.498 16.2196L350.502 16.2241L351.214 15.5213ZM342.194 15.3793L342.804 16.1713L342.804 16.1713L342.194 15.3793ZM339.797 18.1847L339.46 19.1264L340.32 19.4332L340.704 18.6058L339.797 18.1847ZM335.82 16.7642L334.9 16.3703L334.481 17.3481L335.483 17.7059L335.82 16.7642ZM338.66 12.8935L339.275 13.682L339.277 13.6811L338.66 12.8935ZM342.567 10.9403L342.819 11.9081L342.824 11.9066L342.567 10.9403ZM349.775 10.6918L349.591 11.6747L349.603 11.6767L349.775 10.6918ZM353.096 11.9524L352.581 12.8099L352.585 12.8124L353.096 11.9524ZM355.777 14.8466L354.901 15.3288L354.901 15.3288L355.777 14.8466ZM356.842 38V39H357.842V38H356.842ZM352.652 38H351.652V39H352.652V38ZM352.652 34.3068H353.652V33.3068H352.652V34.3068ZM352.439 34.3068V33.3068H351.81L351.537 33.8741L352.439 34.3068ZM351.018 36.2067L351.732 36.9075L351.732 36.9075L351.018 36.2067ZM348.373 37.929L347.978 37.0103L348.373 37.929ZM349.172 33.8984L348.679 33.0285L348.675 33.0308L349.172 33.8984ZM351.764 31.3771L350.897 30.8788L350.893 30.8864L351.764 31.3771ZM352.652 24.2926H353.652V21.5306L351.884 23.6524L352.652 24.2926ZM351.48 24.8786L351.75 25.8416L351.762 25.8379L351.48 24.8786ZM349.42 25.3224L349.572 26.3109L349.585 26.3088L349.42 25.3224ZM347.165 25.642L347.279 26.6356L347.293 26.6338L347.165 25.642ZM345.408 25.8551L345.537 26.8467L345.538 26.8466L345.408 25.8551ZM342.354 26.5476L342.666 27.4975L342.673 27.4951L342.354 26.5476ZM340.081 27.9503L339.347 27.2714L339.346 27.272L340.081 27.9503ZM340.844 33.7741L340.275 34.5964L340.286 34.6034L340.844 33.7741ZM344.342 37.6392C342.742 37.6392 341.319 37.3386 340.057 36.7549L339.217 38.5704C340.772 39.2888 342.486 39.6392 344.342 39.6392V37.6392ZM340.063 36.7578C338.812 36.1691 337.836 35.3341 337.113 34.2493L335.449 35.3587C336.383 36.7596 337.645 37.8305 339.211 38.5675L340.063 36.7578ZM337.116 34.2529C336.413 33.1894 336.038 31.8743 336.038 30.2585H334.038C334.038 32.1939 334.492 33.9091 335.447 35.355L337.116 34.2529ZM336.038 30.2585C336.038 28.8196 336.322 27.757 336.806 26.9943L335.117 25.9233C334.37 27.1019 334.038 28.5724 334.038 30.2585H336.038ZM336.809 26.9897C337.332 26.1552 338.026 25.5054 338.905 25.0304L337.954 23.2707C336.774 23.9084 335.822 24.7974 335.114 25.9279L336.809 26.9897ZM338.905 25.0304C339.846 24.5221 340.893 24.1385 342.053 23.8845L341.625 21.9308C340.298 22.2213 339.073 22.6663 337.954 23.2707L338.905 25.0304ZM342.06 23.883C343.284 23.6057 344.515 23.3862 345.75 23.2245L345.491 21.2414C344.194 21.4112 342.902 21.6415 341.618 21.9324L342.06 23.883ZM345.748 23.2248C347.401 23.0122 348.736 22.8536 349.754 22.7482L349.548 20.7589C348.507 20.8666 347.154 21.0275 345.493 21.2411L345.748 23.2248ZM349.764 22.7472C350.84 22.6249 351.766 22.4122 352.422 22.0345L351.425 20.3007C351.135 20.4676 350.546 20.6454 349.538 20.7599L349.764 22.7472ZM352.413 22.0398C353.286 21.5501 353.652 20.6926 353.652 19.7472H351.652C351.652 20.1511 351.533 20.2406 351.435 20.2955L352.413 22.0398ZM353.652 19.7472V19.6051H351.652V19.7472H353.652ZM353.652 19.6051C353.652 17.6682 353.117 16.0254 351.925 14.8186L350.502 16.2241C351.228 16.9585 351.652 18.0382 351.652 19.6051H353.652ZM351.929 14.823C350.727 13.5901 348.983 13.0653 346.899 13.0653V15.0653C348.674 15.0653 349.807 15.5112 350.498 16.2196L351.929 14.823ZM346.899 13.0653C344.763 13.0653 342.952 13.5322 341.583 14.5873L342.804 16.1713C343.708 15.4744 345.034 15.0653 346.899 15.0653V13.0653ZM341.583 14.5873C340.358 15.532 339.437 16.5856 338.89 17.7635L340.704 18.6058C341.08 17.7951 341.757 16.9784 342.804 16.1713L341.583 14.5873ZM340.133 17.2429L336.156 15.8225L335.483 17.7059L339.46 19.1264L340.133 17.2429ZM336.739 17.1581C337.396 15.6249 338.249 14.4825 339.275 13.682L338.045 12.105C336.704 13.151 335.664 14.5891 334.9 16.3703L336.739 17.1581ZM339.277 13.6811C340.369 12.8266 341.548 12.239 342.819 11.908L342.315 9.97264C340.768 10.3755 339.343 11.0901 338.044 12.1058L339.277 13.6811ZM342.824 11.9066C344.167 11.5486 345.477 11.3722 346.757 11.3722V9.37216C345.291 9.37216 343.808 9.57448 342.309 9.97411L342.824 11.9066ZM346.757 11.3722C347.555 11.3722 348.498 11.4696 349.591 11.6746L349.96 9.70889C348.781 9.48781 347.711 9.37216 346.757 9.37216V11.3722ZM349.603 11.6767C350.622 11.8554 351.614 12.2296 352.581 12.8099L353.61 11.0949C352.447 10.3968 351.225 9.93054 349.948 9.70677L349.603 11.6767ZM352.585 12.8124C353.484 13.3457 354.261 14.1671 354.901 15.3288L356.653 14.3644C355.872 12.9456 354.862 11.8376 353.606 11.0924L352.585 12.8124ZM354.901 15.3288C355.5 16.418 355.842 17.9599 355.842 20.0312H357.842C357.842 17.7702 357.474 15.8557 356.653 14.3644L354.901 15.3288ZM355.842 20.0312V38H357.842V20.0312H355.842ZM356.842 37H352.652V39H356.842V37ZM353.652 38V34.3068H351.652V38H353.652ZM352.652 33.3068H352.439V35.3068H352.652V33.3068ZM351.537 33.8741C351.317 34.3336 350.922 34.8781 350.305 35.5059L351.732 36.9075C352.441 36.1859 352.993 35.4637 353.34 34.7395L351.537 33.8741ZM350.305 35.5059C349.754 36.0669 348.99 36.575 347.978 37.0103L348.768 38.8476C349.957 38.336 350.957 37.6959 351.732 36.9075L350.305 35.5059ZM347.978 37.0103C347.035 37.4158 345.834 37.6392 344.342 37.6392V39.6392C346.023 39.6392 347.509 39.3891 348.768 38.8476L347.978 37.0103ZM344.981 35.875C346.768 35.875 348.346 35.524 349.669 34.7661L348.675 33.0308C347.725 33.575 346.51 33.875 344.981 33.875V35.875ZM349.665 34.7683C350.952 34.0384 351.956 33.0741 352.635 31.8679L350.893 30.8864C350.412 31.7399 349.688 32.4564 348.679 33.0285L349.665 34.7683ZM352.631 31.8754C353.306 30.7011 353.652 29.4471 353.652 28.1278H351.652C351.652 29.0813 351.406 29.9935 350.897 30.8788L352.631 31.8754ZM353.652 28.1278V24.2926H351.652V28.1278H353.652ZM351.884 23.6524C351.919 23.6096 351.914 23.6369 351.779 23.7045C351.654 23.7669 351.465 23.8405 351.198 23.9192L351.762 25.8379C352.098 25.739 352.407 25.6262 352.673 25.4933C352.929 25.3656 353.207 25.1887 353.42 24.9328L351.884 23.6524ZM351.21 23.9156C350.661 24.0693 350.011 24.2102 349.256 24.336L349.585 26.3088C350.392 26.1743 351.115 26.0192 351.75 25.8415L351.21 23.9156ZM349.268 24.3341C348.506 24.4513 347.763 24.5567 347.037 24.6503L347.293 26.6338C348.036 26.538 348.795 26.4304 349.572 26.3108L349.268 24.3341ZM347.051 24.6486C346.327 24.7317 345.735 24.8035 345.277 24.8637L345.538 26.8466C345.98 26.7884 346.56 26.7181 347.279 26.6355L347.051 24.6486ZM345.278 24.8635C344.131 25.0132 343.048 25.2577 342.034 25.6001L342.673 27.4951C343.553 27.1983 344.506 26.9811 345.537 26.8467L345.278 24.8635ZM342.041 25.5977C340.969 25.9504 340.058 26.5015 339.347 27.2714L340.815 28.6291C341.263 28.1443 341.868 27.7603 342.666 27.4975L342.041 25.5977ZM339.346 27.272C338.565 28.1185 338.229 29.2257 338.229 30.4716H340.229C340.229 29.5868 340.461 29.0132 340.816 28.6286L339.346 27.272ZM338.229 30.4716C338.229 32.213 338.895 33.6408 340.275 34.5963L341.414 32.952C340.639 32.416 340.229 31.6421 340.229 30.4716H338.229ZM340.286 34.6034C341.579 35.4753 343.167 35.875 344.981 35.875V33.875C343.458 33.875 342.288 33.5408 341.403 32.9449L340.286 34.6034ZM364.491 38H363.491V39H364.491V38ZM364.491 10.7273V9.72727H363.491V10.7273H364.491ZM368.681 10.7273H369.681V9.72727H368.681V10.7273ZM368.681 38V39H369.681V38H368.681ZM364.508 5.3473L363.816 6.06902L363.823 6.07593L364.508 5.3473ZM364.508 1.33452L363.823 0.60585L363.816 0.612835L364.508 1.33452ZM368.716 1.33452L368.024 2.05623L368.031 2.06314L368.716 1.33452ZM368.716 5.3473L368.031 4.61863L368.024 4.62562L368.716 5.3473ZM365.491 38V10.7273H363.491V38H365.491ZM364.491 11.7273H368.681V9.72727H364.491V11.7273ZM367.681 10.7273V38H369.681V10.7273H367.681ZM368.681 37H364.491V39H368.681V37ZM366.621 5.18182C366.057 5.18182 365.598 4.99963 365.193 4.61867L363.823 6.07593C364.602 6.80766 365.551 7.18182 366.621 7.18182V5.18182ZM365.2 4.62562C364.811 4.25176 364.638 3.84102 364.638 3.34091H362.638C362.638 4.4033 363.046 5.33015 363.816 6.06898L365.2 4.62562ZM364.638 3.34091C364.638 2.8408 364.811 2.43006 365.2 2.0562L363.816 0.612835C363.046 1.35167 362.638 2.27852 362.638 3.34091H364.638ZM365.193 2.06314C365.598 1.68219 366.057 1.5 366.621 1.5V-0.5C365.551 -0.5 364.602 -0.125846 363.823 0.605888L365.193 2.06314ZM366.621 1.5C367.185 1.5 367.634 1.68166 368.024 2.0562L369.409 0.612834C368.639 -0.125318 367.691 -0.5 366.621 -0.5V1.5ZM368.031 2.06314C368.431 2.43895 368.604 2.84772 368.604 3.34091H370.604C370.604 2.2716 370.185 1.34277 369.401 0.605889L368.031 2.06314ZM368.604 3.34091C368.604 3.8341 368.431 4.24287 368.031 4.61867L369.401 6.07593C370.185 5.33905 370.604 4.41022 370.604 3.34091H368.604ZM368.024 4.62562C367.634 5.00016 367.185 5.18182 366.621 5.18182V7.18182C367.691 7.18182 368.639 6.80713 369.409 6.06898L368.024 4.62562ZM380.546 1.63636H381.546V0.636363H380.546V1.63636ZM380.546 38V39H381.546V38H380.546ZM376.356 38H375.356V39H376.356V38ZM376.356 1.63636V0.636363H375.356V1.63636H376.356ZM379.546 1.63636V38H381.546V1.63636H379.546ZM380.546 37H376.356V39H380.546V37ZM377.356 38V1.63636H375.356V38H377.356ZM376.356 2.63636H380.546V0.636363H376.356V2.63636ZM398.823 38H397.823V39H398.823V38ZM398.823 30.7273V29.7273H397.823V30.7273H398.823ZM406.096 30.7273H407.096V29.7273H406.096V30.7273ZM406.096 38V39H407.096V38H406.096ZM399.823 38V30.7273H397.823V38H399.823ZM398.823 31.7273H406.096V29.7273H398.823V31.7273ZM405.096 30.7273V38H407.096V30.7273H405.096ZM406.096 37H398.823V39H406.096V37Z" fill="black" fill-opacity="0.8" mask="url(#path-1-outside-1_1_3)"/>
</g>
<defs>
<filter id="filter0_d_1_3" x="0.165558" y="0.5" width="409.93" height="46.1392" filterUnits="userSpaceOnUse" color-interpolation-filters="sRGB">
<feFlood flood-opacity="0" result="BackgroundImageFix"/>
<feColorMatrix in="SourceAlpha" type="matrix" values="0 0 0 0 0 0 0 0 0 0 0 0 0 0 0 0 0 0 127 0" result="hardAlpha"/>
<feOffset dy="4"/>
<feGaussianBlur stdDeviation="2"/>
<feComposite in2="hardAlpha" operator="out"/>
<feColorMatrix type="matrix" values="0 0 0 0 0 0 0 0 0 0 0 0 0 0 0 0 0 0 0.25 0"/>
<feBlend mode="normal" in2="BackgroundImageFix" result="effect1_dropShadow_1_3"/>
<feBlend mode="normal" in="SourceGraphic" in2="effect1_dropShadow_1_3" result="shape"/>
</filter>
</defs>
</svg>
